<svg width="264" height="53" viewBox="0 0 264 53" fill="none" xmlns="http://www.w3.org/2000/svg">
<path d="M63.8308 38.3086V11.7086H73.7868C75.9148 11.7086 77.6755 12.0759 79.0688 12.8106C80.4622 13.5453 81.5008 14.5333 82.1848 15.7746C82.8688 16.9906 83.2108 18.3459 83.2108 19.8406C83.2108 21.2593 82.8815 22.5893 82.2228 23.8306C81.5642 25.0466 80.5255 26.0346 79.1068 26.7946C77.7135 27.5293 75.9148 27.8966 73.7108 27.8966H68.9608V38.3086H63.8308ZM77.6248 38.3086L72.1528 26.6046H77.7008L83.4768 38.3086H77.6248ZM68.9608 24.1726H73.4448C74.9902 24.1726 76.1302 23.7926 76.8648 23.0326C77.5995 22.2726 77.9668 21.2719 77.9668 20.0306C77.9668 18.7893 77.5995 17.8139 76.8648 17.1046C76.1555 16.3699 75.0155 16.0026 73.4448 16.0026H68.9608V24.1726ZM94.1729 38.7646C92.3489 38.7646 90.7023 38.3466 89.2329 37.5106C87.7636 36.6746 86.5983 35.5093 85.7369 34.0146C84.9009 32.5199 84.4829 30.8099 84.4829 28.8846C84.4829 26.9339 84.9136 25.2239 85.7749 23.7546C86.6363 22.2599 87.8016 21.0946 89.2709 20.2586C90.7403 19.4226 92.3743 19.0046 94.1729 19.0046C95.9969 19.0046 97.6436 19.4226 99.1129 20.2586C100.582 21.0946 101.735 22.2599 102.571 23.7546C103.432 25.2239 103.863 26.9339 103.863 28.8846C103.863 30.8353 103.432 32.5579 102.571 34.0526C101.71 35.5219 100.544 36.6746 99.0749 37.5106C97.6309 38.3466 95.9969 38.7646 94.1729 38.7646ZM94.1349 34.4326C94.9709 34.4326 95.7183 34.2299 96.3769 33.8246C97.0609 33.4193 97.6056 32.8113 98.0109 32.0006C98.4416 31.1646 98.6569 30.1259 98.6569 28.8846C98.6569 27.6433 98.4416 26.6173 98.0109 25.8066C97.6056 24.9706 97.0609 24.3499 96.3769 23.9446C95.7183 23.5393 94.9963 23.3366 94.2109 23.3366C93.4003 23.3366 92.6529 23.5393 91.9689 23.9446C91.2849 24.3499 90.7403 24.9706 90.3349 25.8066C89.9296 26.6173 89.7269 27.6433 89.7269 28.8846C89.7269 30.1259 89.9296 31.1646 90.3349 32.0006C90.7403 32.8113 91.2723 33.4193 91.9309 33.8246C92.6149 34.2299 93.3496 34.4326 94.1349 34.4326ZM115.696 38.7646C113.872 38.7646 112.226 38.3466 110.756 37.5106C109.287 36.6746 108.122 35.5093 107.26 34.0146C106.424 32.5199 106.006 30.8099 106.006 28.8846C106.006 26.9339 106.437 25.2239 107.298 23.7546C108.16 22.2599 109.325 21.0946 110.794 20.2586C112.264 19.4226 113.898 19.0046 115.696 19.0046C117.52 19.0046 119.167 19.4226 120.636 20.2586C122.106 21.0946 123.258 22.2599 124.094 23.7546C124.956 25.2239 125.386 26.9339 125.386 28.8846C125.386 30.8353 124.956 32.5579 124.094 34.0526C123.233 35.5219 122.068 36.6746 120.598 37.5106C119.154 38.3466 117.52 38.7646 115.696 38.7646ZM115.658 34.4326C116.494 34.4326 117.242 34.2299 117.9 33.8246C118.584 33.4193 119.129 32.8113 119.534 32.0006C119.965 31.1646 120.18 30.1259 120.18 28.8846C120.18 27.6433 119.965 26.6173 119.534 25.8066C119.129 24.9706 118.584 24.3499 117.9 23.9446C117.242 23.5393 116.52 23.3366 115.734 23.3366C114.924 23.3366 114.176 23.5393 113.492 23.9446C112.808 24.3499 112.264 24.9706 111.858 25.8066C111.453 26.6173 111.25 27.6433 111.25 28.8846C111.25 30.1259 111.453 31.1646 111.858 32.0006C112.264 32.8113 112.796 33.4193 113.454 33.8246C114.138 34.2299 114.873 34.4326 115.658 34.4326ZM128.1 38.3086V19.4606H132.584L133.04 22.5386H133.154C133.736 21.3733 134.534 20.4993 135.548 19.9166C136.586 19.3086 137.79 19.0046 139.158 19.0046C140.12 19.0046 140.994 19.1313 141.78 19.3846C142.565 19.6379 143.262 20.0306 143.87 20.5626C144.478 21.0946 144.984 21.8039 145.39 22.6906H145.504C146.213 21.5253 147.1 20.6259 148.164 19.9926C149.253 19.3339 150.583 19.0046 152.154 19.0046C153.648 19.0046 154.928 19.3466 155.992 20.0306C157.056 20.6893 157.866 21.6646 158.424 22.9566C159.006 24.2486 159.298 25.8446 159.298 27.7446V38.3086H154.206V28.2006C154.206 26.6299 153.902 25.4266 153.294 24.5906C152.711 23.7546 151.761 23.3366 150.444 23.3366C149.608 23.3366 148.873 23.5266 148.24 23.9066C147.632 24.2613 147.15 24.8059 146.796 25.5406C146.441 26.2753 146.264 27.1746 146.264 28.2386V38.3086H141.172V28.2006C141.172 26.6299 140.868 25.4266 140.26 24.5906C139.652 23.7546 138.689 23.3366 137.372 23.3366C136.612 23.3366 135.915 23.5519 135.282 23.9826C134.648 24.3879 134.142 24.9833 133.762 25.7686C133.407 26.5286 133.23 27.4659 133.23 28.5806V38.3086H128.1ZM161.857 38.3086V34.5466C163.453 33.2546 165.011 31.9626 166.531 30.6706C168.051 29.3786 169.419 28.0993 170.635 26.8326C171.851 25.5406 172.801 24.2866 173.485 23.0706C174.194 21.8546 174.549 20.6766 174.549 19.5366C174.549 18.8273 174.422 18.1813 174.169 17.5986C173.916 16.9906 173.523 16.5093 172.991 16.1546C172.459 15.7746 171.75 15.5846 170.863 15.5846C170.002 15.5846 169.267 15.7873 168.659 16.1926C168.051 16.5979 167.595 17.1426 167.291 17.8266C166.987 18.4853 166.835 19.2326 166.835 20.0686H161.895C161.946 18.1179 162.376 16.4839 163.187 15.1666C163.998 13.8493 165.087 12.8739 166.455 12.2406C167.823 11.5819 169.343 11.2526 171.015 11.2526C172.89 11.2526 174.46 11.6073 175.727 12.3166C177.019 13.0006 177.994 13.9379 178.653 15.1286C179.337 16.3193 179.679 17.6873 179.679 19.2326C179.679 20.3979 179.464 21.5379 179.033 22.6526C178.628 23.7673 178.058 24.8566 177.323 25.9206C176.588 26.9593 175.752 27.9599 174.815 28.9226C173.878 29.8853 172.902 30.8099 171.889 31.6966C170.901 32.5579 169.938 33.3686 169.001 34.1286H180.287V38.3086H161.857ZM190.851 38.7646C189.179 38.7646 187.697 38.4859 186.405 37.9286C185.139 37.3713 184.113 36.6113 183.327 35.6486C182.567 34.6606 182.124 33.5459 181.997 32.3046H187.127C187.229 32.7606 187.431 33.1913 187.735 33.5966C188.039 34.0019 188.445 34.3313 188.951 34.5846C189.483 34.8126 190.091 34.9266 190.775 34.9266C191.485 34.9266 192.055 34.8379 192.485 34.6606C192.916 34.4579 193.233 34.2046 193.435 33.9006C193.638 33.5713 193.739 33.2419 193.739 32.9126C193.739 32.4313 193.587 32.0513 193.283 31.7726C192.979 31.4939 192.523 31.2659 191.915 31.0886C191.333 30.8859 190.636 30.6706 189.825 30.4426C188.989 30.2146 188.141 29.9739 187.279 29.7206C186.443 29.4673 185.671 29.1506 184.961 28.7706C184.252 28.3653 183.682 27.8586 183.251 27.2506C182.821 26.6173 182.605 25.8319 182.605 24.8946C182.605 23.8053 182.909 22.8173 183.517 21.9306C184.151 21.0439 185.037 20.3346 186.177 19.8026C187.317 19.2706 188.698 19.0046 190.319 19.0046C192.599 19.0046 194.411 19.5239 195.753 20.5626C197.121 21.6013 197.919 23.0326 198.147 24.8566H193.321C193.195 24.2233 192.865 23.7419 192.333 23.4126C191.827 23.0579 191.155 22.8806 190.319 22.8806C189.433 22.8806 188.749 23.0453 188.267 23.3746C187.811 23.7039 187.583 24.1093 187.583 24.5906C187.583 24.9453 187.735 25.2493 188.039 25.5026C188.369 25.7559 188.825 25.9713 189.407 26.1486C189.99 26.3259 190.699 26.5286 191.535 26.7566C192.878 27.1113 194.094 27.4913 195.183 27.8966C196.298 28.3019 197.185 28.8593 197.843 29.5686C198.527 30.2526 198.869 31.2406 198.869 32.5326C198.895 33.7233 198.578 34.7873 197.919 35.7246C197.261 36.6619 196.336 37.4093 195.145 37.9666C193.955 38.4986 192.523 38.7646 190.851 38.7646ZM210.739 38.7646C208.738 38.7646 206.99 38.3466 205.495 37.5106C204.026 36.6493 202.873 35.4839 202.037 34.0146C201.226 32.5199 200.821 30.8099 200.821 28.8846C200.821 26.9593 201.239 25.2619 202.075 23.7926C202.936 22.2979 204.102 21.1326 205.571 20.2966C207.066 19.4353 208.788 19.0046 210.739 19.0046C213.171 19.0046 215.223 19.6379 216.895 20.9046C218.567 22.1713 219.618 23.9193 220.049 26.1486H214.615C214.412 25.2366 213.944 24.5399 213.209 24.0586C212.5 23.5519 211.664 23.2986 210.701 23.2986C209.814 23.2986 209.016 23.5266 208.307 23.9826C207.623 24.4133 207.078 25.0466 206.673 25.8826C206.268 26.7186 206.065 27.7193 206.065 28.8846C206.065 29.7459 206.179 30.5186 206.407 31.2026C206.635 31.8613 206.952 32.4439 207.357 32.9506C207.788 33.4319 208.282 33.7993 208.839 34.0526C209.396 34.2806 210.017 34.3946 210.701 34.3946C211.36 34.3946 211.955 34.2933 212.487 34.0906C213.019 33.8626 213.475 33.5459 213.855 33.1406C214.235 32.7099 214.488 32.2033 214.615 31.6206H220.049C219.618 33.7993 218.567 35.5346 216.895 36.8266C215.223 38.1186 213.171 38.7646 210.739 38.7646ZM228.923 38.7646C227.403 38.7646 226.149 38.5113 225.161 38.0046C224.198 37.4979 223.489 36.8139 223.033 35.9526C222.577 35.0913 222.349 34.1413 222.349 33.1026C222.349 31.9373 222.64 30.9113 223.223 30.0246C223.831 29.1379 224.73 28.4539 225.921 27.9726C227.137 27.4659 228.669 27.2126 230.519 27.2126H235.269C235.269 26.2753 235.129 25.5026 234.851 24.8946C234.597 24.2866 234.192 23.8433 233.635 23.5646C233.103 23.2606 232.419 23.1086 231.583 23.1086C230.62 23.1086 229.784 23.3239 229.075 23.7546C228.365 24.1853 227.935 24.8693 227.783 25.8066H222.805C222.931 24.4133 223.375 23.2099 224.135 22.1966C224.92 21.1833 225.946 20.3979 227.213 19.8406C228.505 19.2833 229.974 19.0046 231.621 19.0046C233.419 19.0046 234.977 19.3086 236.295 19.9166C237.612 20.4993 238.625 21.3733 239.335 22.5386C240.044 23.6786 240.399 25.0719 240.399 26.7186V38.3086H236.143L235.611 35.3826H235.459C235.104 35.9399 234.686 36.4339 234.205 36.8646C233.749 37.2953 233.242 37.6499 232.685 37.9286C232.153 38.2073 231.57 38.4099 230.937 38.5366C230.303 38.6886 229.632 38.7646 228.923 38.7646ZM230.557 34.8126C231.241 34.8126 231.849 34.6986 232.381 34.4706C232.913 34.2173 233.356 33.8879 233.711 33.4826C234.091 33.0773 234.395 32.6086 234.623 32.0766C234.851 31.5193 235.003 30.9493 235.079 30.3666H231.127C230.341 30.3666 229.695 30.4679 229.189 30.6706C228.682 30.8479 228.315 31.1139 228.087 31.4686C227.859 31.7979 227.745 32.1906 227.745 32.6466C227.745 33.1026 227.859 33.4953 228.087 33.8246C228.34 34.1539 228.669 34.4073 229.075 34.5846C229.505 34.7366 229.999 34.8126 230.557 34.8126ZM243.473 38.3086V19.4606H247.881L248.299 22.5386H248.413C249.046 21.4239 249.882 20.5626 250.921 19.9546C251.96 19.3213 253.264 19.0046 254.835 19.0046C256.406 19.0046 257.736 19.3466 258.825 20.0306C259.914 20.6893 260.738 21.6646 261.295 22.9566C261.878 24.2486 262.169 25.8446 262.169 27.7446V38.3086H257.077V28.2006C257.077 26.6299 256.748 25.4266 256.089 24.5906C255.456 23.7546 254.455 23.3366 253.087 23.3366C252.226 23.3366 251.453 23.5519 250.769 23.9826C250.085 24.3879 249.553 24.9833 249.173 25.7686C248.793 26.5286 248.603 27.4659 248.603 28.5806V38.3086H243.473Z" fill="#170F49"/>
<mask id="mask0_1245_35570" style="mask-type:alpha" maskUnits="userSpaceOnUse" x="0" y="0" width="49" height="53">
<path d="M19.4512 1.21978C22.2682 -0.406591 25.7388 -0.406593 28.5558 1.21977L43.4548 9.82171C46.2717 11.4481 48.007 14.4537 48.007 17.7065V34.9103C48.007 38.1631 46.2717 41.1687 43.4548 42.7951L28.5558 51.397C25.7388 53.0234 22.2682 53.0234 19.4513 51.397L4.55227 42.7951C1.73532 41.1687 0 38.1631 0 34.9103V17.7065C0 14.4537 1.73531 11.4481 4.55226 9.82171L19.4512 1.21978Z" fill="#C4C4C4"/>
</mask>
<g mask="url(#mask0_1245_35570)">
<rect width="30.3817" height="30.3817" transform="matrix(0.866025 0.5 -0.866025 0.5 24.0039 -1.86035)" fill="#4A3AFF"/>
<rect width="27.9554" height="27.9554" transform="matrix(0.866025 0.5 -2.20305e-08 1 -0.207031 13.5503)" fill="#4CBFFF"/>
<rect width="27.9554" height="27.9554" transform="matrix(0.866025 -0.5 2.20305e-08 1 24.0039 27.5317)" fill="#9E97FF"/>
</g>
</svg>
